<svg width="498" height="443" viewBox="0 0 498 443" fill="none" xmlns="http://www.w3.org/2000/svg">
<path d="M244.9 0.325812C236.955 1.56488 229.97 6.31287 225.976 13.3467L3.51841 402.954C-1.13066 411.142 -1.2099 421.343 3.51841 429.584C8.25201 437.835 17.0377 443.011 26.5419 443H471.463C480.967 443.011 489.758 437.835 494.481 429.584C499.21 421.343 499.136 411.142 494.481 402.954L272.029 13.3467C266.561 3.71723 255.725 -1.38325 244.9 0.325812Z" fill="#FDEE1C"/>

<path d="M246.95 11.3225C242.65 12.0008 238.983 14.6178 236.912 18.271L12.9117 410.549C10.4551 414.87 10.4498 420.419 12.9117 424.702C15.4106 429.06 20.0332 431.923 25.0627 431.912H473.064C478.088 431.923 482.711 429.066 485.21 424.702C487.677 420.414 487.666 414.865 485.21 410.549L261.214 18.2656C258.335 13.2079 252.772 10.4039 246.95 11.3225ZM249.058 56.4578L439.247 395.066H58.6047L249.058 56.4578Z" fill="#010101"/>

<path d="M196.359 282.569L196.331 266.663L127.029 308.565C127.128 313.512 126.929 319.213 127.029 324.16L196.331 366.062L196.275 350.011L139.393 316.432L196.359 282.569Z" fill="black"/>

<path d="M301.641 282.569L301.669 266.663L370.971 308.565C370.872 313.512 371.071 319.213 370.971 324.16L301.669 366.062L301.725 350.011L358.607 316.432L301.641 282.569Z" fill="black"/>
<path d="M276.027 262H294.99L221.678 367H199.145" fill="black"/>

<path d="M274.124 134.755C271.878 135.654 269.354 135.446 266.972 135.645C261.33 135.861 255.649 135.82 250.054 136.657C246.983 137.116 243.85 137.061 240.749 137.051C238.512 137.126 236.324 136.671 234.175 136.097C233.716 135.897 233.08 135.803 232.982 136.46C231.082 141.55 229.717 146.822 228.353 152.08C228.293 152.599 228.145 153.033 227.907 153.452C227.246 156.512 226.419 159.54 226.141 162.668C225.949 164.474 225.563 166.279 225.495 168.087C226.077 169.177 227.326 169.657 228.137 170.563C230.596 172.822 233.767 174.109 237.029 174.667C239.675 175.057 242.375 174.805 245.037 174.718C246.757 174.524 248.478 174.332 250.202 174.183C250.519 174.002 250.888 174.151 251.205 173.945C254.898 173.64 258.619 173.93 262.313 174.13C265.957 174.344 269.695 174.657 273.282 173.809C275.476 173.143 277.868 172.56 279.613 171.022C280.611 170.96 281.789 171.677 282.678 170.895C283.015 170.737 282.723 170.478 282.743 170.297C283.349 169.943 282.957 168.998 283.046 168.42C282.901 167.174 282.365 166.015 282.159 164.765C281.192 160.625 279.965 156.555 278.758 152.481C278.46 151.362 278.107 150.256 277.793 149.164C277.48 148.532 277.623 147.735 277.358 147.051C277.132 145.749 276.687 144.522 276.317 143.273C275.96 141.715 275.713 140.068 275.016 138.645C274.76 137.74 275.038 136.648 274.428 135.89C274.227 135.624 274.413 134.832 274.124 134.755ZM257.728 140.691C259.281 140.685 260.997 140.862 262.26 141.79C261.275 141.763 260.341 141.151 259.31 141.13C257.491 140.855 255.502 141.115 254.072 142.331C253.573 142.585 253.913 143.157 253.776 143.507C253.348 143.467 253.394 144.042 253.821 143.979C255.438 144.845 256.86 146.152 258.012 147.582C258.218 148.47 259.021 148.523 259.784 148.631C261.415 149.016 263.256 148.77 264.445 147.495C265.102 146.933 265.799 146.245 266.216 145.545C266.568 146.366 265.504 147.015 265.057 147.582C264.424 148.176 263.652 148.687 262.872 149.013C261.487 149.315 260.065 149.087 258.702 148.857C258.683 149.478 259.316 150.08 259.474 150.71C260.018 152.325 259.987 154.146 259.676 155.801C258.933 157.811 257.218 159.341 255.179 159.971C255.065 160.055 254.3 160.333 254.635 159.979C256.317 159.02 258.346 158.151 258.994 156.154C259.762 153.872 259.471 151.285 258.24 149.213C257.465 147.341 256.058 145.748 254.286 144.774C253.705 144.562 254.329 145.3 254.488 145.397C255.198 146.181 256.231 146.758 256.747 147.668C256.396 147.866 255.971 147.183 255.66 147.01C254.949 146.41 254.303 145.594 253.55 145.114C252.689 147.14 250.808 148.622 248.666 149.066C246.577 149.488 244.092 149.463 242.38 148.053C242.068 147.625 241.466 146.94 241.801 146.405C242.102 146.194 242.404 146.375 242.191 146.738C242.429 147.961 243.877 148.46 244.968 148.713C246.643 148.917 248.516 148.934 250.005 148.062C250.203 147.721 249.463 148.042 249.323 148.004C247.935 148.23 246.433 147.931 245.502 146.807C244.825 146.246 244.981 145.247 244.459 144.639C243.842 144.483 244.397 143.716 244.644 143.429C245.776 141.973 247.635 141.225 249.463 141.4C250.796 141.248 252.046 141.669 253.226 142.24C254.641 141.459 256.05 140.6 257.728 140.691ZM255.51 142.15C255.86 142.436 255.77 143.058 256.122 143.409C257.027 145.179 258.753 146.75 260.871 146.557C262.253 146.645 263.225 145.315 263.186 144.024C263.294 143.555 263.088 142.819 263.344 142.466C263.949 142.817 264.615 143.049 265.238 143.327C265.432 143.476 265.752 143.967 265.608 144.13C264.914 143.878 264.41 143.012 263.665 142.999C263.297 143.345 263.872 143.921 263.595 144.372C263.374 145.602 262.57 146.997 261.152 146.977C259.495 147.155 257.877 146.234 256.726 145.106C256.048 144.329 255.385 143.174 255.51 142.15ZM250.235 149.779C250.072 150.208 249.42 150.697 249.06 151.103C247.984 151.881 247.984 153.279 247.856 154.473C247.786 155.861 248.435 157.182 249.101 158.327C248.883 158.444 248.542 157.846 248.366 157.712C247.391 156.375 247.427 154.539 247.655 152.965C247.929 151.593 249.003 150.407 250.235 149.779ZM267.872 151.116C268.026 151.373 267.5 151.826 267.35 152.083C267.15 152.268 266.775 152.858 267.284 152.862C267.902 152.926 268.706 152.677 269.231 152.993C268.501 153.272 267.427 152.958 266.82 153.571C266.585 154.788 267.484 155.915 268.122 156.888C268.225 157.12 268.954 157.827 268.738 157.884C267.536 157.137 266.813 155.754 266.306 154.477C266.291 154.112 266.138 153.538 265.641 153.793C262.94 154.635 261.033 157.106 260.251 159.761C259.275 162.461 258.753 165.538 256.502 167.553C255.223 168.818 253.516 169.783 251.661 169.588C249.81 169.729 248.109 168.796 246.583 167.862C244.512 166.409 243.035 163.829 243.514 161.238C243.661 159.562 244.586 157.938 244.336 156.248C244.036 155.586 243.499 155.237 242.773 155.491C242.166 155.599 241.38 155.452 240.877 155.801C240.972 156.8 241.658 157.714 241.608 158.773C241.578 160.207 240.466 161.417 239.443 162.283C239.506 161.854 240.133 161.442 240.334 160.998C241.267 159.843 241.312 158.218 240.601 156.945C240.071 155.809 239.387 154.67 238.518 153.801C238.619 153.398 239.143 153.986 239.311 154.125C239.862 154.519 240.215 155.232 240.729 155.596C241.469 154.908 242.687 155.004 243.641 155.096C244.822 155.25 244.937 156.728 244.857 157.675C244.365 159.755 243.581 161.919 244.208 164.066C244.882 166.351 246.94 167.968 249.138 168.714C251.274 169.64 254.022 169.351 255.662 167.583C257.116 166.39 258.123 164.758 258.642 162.958C259.659 160.251 260.143 157.091 262.486 155.137C263.476 154.093 264.931 153.842 266.117 153.141C266.731 152.516 267.125 151.592 267.872 151.116Z" fill="#FFCC00"/>
<path d="M250.124 141.831C248.814 141.82 247.446 141.811 246.324 142.589C245.441 142.903 245.471 143.933 245.215 144.676C245.037 146.86 247.87 148.313 249.709 147.373C251.159 146.749 251.837 145.25 252.355 143.868C252.419 143.599 253.237 143.727 252.84 143.405C252.471 143.475 252.427 142.882 252.659 142.806C252.521 143.194 253.347 143.685 253.39 143.224C252.711 142.209 251.321 141.68 250.124 141.831Z" fill="#FFCC00"/>
<path d="M252.756 144.193C252.514 144.571 252.505 145.11 252.216 145.49C251.879 146.237 251.275 146.834 250.806 147.485C251.05 147.65 251.361 147.206 251.572 147.086C252.297 146.384 253.162 145.455 252.88 144.355C252.864 144.297 252.84 144.176 252.756 144.193Z" fill="#FFCC00"/>
<path d="M232.971 155.309C232.971 155.332 232.589 155.35 232.117 155.35C231.646 155.35 231.263 155.332 231.263 155.309C231.263 155.287 231.646 155.269 232.117 155.269C232.589 155.269 232.971 155.287 232.971 155.309Z" fill="#FFEEAA"/>
<path d="M248.343 154.295C248.343 154.34 247.36 154.376 246.147 154.376C244.934 154.376 243.951 154.34 243.951 154.295C243.951 154.25 244.934 154.214 246.147 154.214C247.36 154.214 248.343 154.25 248.343 154.295Z" fill="#FFEEAA"/>
<path d="M271.273 154.944C271.273 164.805 263.119 172.799 253.06 172.799C243.002 172.799 234.848 164.805 234.848 154.944C234.848 145.083 243.002 137.09 253.06 137.09C263.119 137.09 271.273 145.083 271.273 154.944Z" fill="#FFEEAA"/>

<path d="M243.598 266.886C243.089 266.839 241.119 266.541 240.395 266.403C240.086 266.344 239.53 266.247 239.159 266.187C238.569 266.092 237.807 265.857 235.985 265.206C235.722 265.112 235.507 264.991 235.507 264.936C235.507 264.882 235.412 264.837 235.296 264.837C235.038 264.837 234.426 264.597 233.567 264.159C233.211 263.977 232.825 263.828 232.708 263.828C232.592 263.828 232.468 263.753 232.433 263.66C232.397 263.568 232.291 263.492 232.196 263.492C232.101 263.492 232.024 263.449 232.024 263.397C232.024 263.345 231.822 263.211 231.574 263.099C231.327 262.988 231.125 262.854 231.125 262.802C231.125 262.75 231.054 262.707 230.968 262.707C230.744 262.707 230.088 261.928 230.158 261.745C230.19 261.662 230.179 261.57 230.133 261.542C230.002 261.461 230.051 259.782 230.199 259.287C230.273 259.04 230.554 258.593 230.824 258.292C231.274 257.791 231.397 257.724 232.315 257.477C232.866 257.329 233.642 257.157 234.041 257.096C234.439 257.034 235.087 256.909 235.48 256.818C235.874 256.727 236.313 256.652 236.456 256.652C236.755 256.652 237.895 256.31 237.979 256.194C238.01 256.153 238.185 256.118 238.368 256.119C238.551 256.119 238.719 256.063 238.742 255.993C238.766 255.924 238.975 255.867 239.208 255.867C239.608 255.867 240.115 255.745 240.62 255.528C240.744 255.474 241.3 255.326 241.856 255.198C242.412 255.07 243.044 254.92 243.261 254.865C243.805 254.727 245.075 254.527 246.006 254.433L246.786 254.354L246.93 253.793C247.01 253.485 247.084 253.056 247.095 252.84C247.106 252.624 247.188 252.329 247.276 252.184C247.433 251.929 247.498 251.113 247.534 248.972C247.542 248.478 247.596 247.393 247.655 246.561C247.772 244.904 247.818 243.888 247.922 240.674C247.96 239.502 248.019 238.443 248.053 238.32C248.086 238.196 248.158 237.263 248.212 236.245C248.265 235.228 248.332 234.067 248.361 233.666C248.39 233.265 248.469 231.55 248.537 229.854C248.605 228.158 248.686 226.655 248.717 226.515C248.747 226.374 248.823 225.315 248.886 224.16C249.048 221.137 249.092 220.499 249.216 219.37C249.277 218.815 249.333 218.134 249.34 217.856C249.348 217.579 249.396 217.049 249.447 216.679C249.54 216.003 249.736 213.989 249.849 212.53C249.921 211.614 249.948 211.396 250.04 211.017C250.099 210.775 250.235 208.311 250.389 204.682C250.413 204.127 250.432 202.663 250.431 201.43C250.431 200.197 250.437 199.061 250.445 198.907C250.453 198.753 250.486 195.662 250.518 192.039C250.559 187.262 250.541 185.452 250.451 185.452C250.378 185.452 250.364 185.393 250.416 185.312C250.465 185.235 250.512 184.087 250.519 182.761C250.532 180.534 250.655 177.286 250.732 177.155C250.75 177.124 250.8 176.657 250.842 176.117C250.898 175.391 250.883 175.136 250.784 175.136C250.706 175.136 250.675 175.043 250.709 174.912C250.756 174.734 250.713 174.688 250.498 174.688C250.349 174.688 250.227 174.732 250.227 174.786C250.227 174.84 249.841 174.892 249.369 174.901C248.898 174.91 248.462 174.948 248.402 174.985C248.341 175.023 248.017 175.047 247.682 175.039C247.347 175.031 246.848 175.075 246.572 175.137C244.754 175.544 240.987 175.673 238.148 175.426C237.097 175.335 236.086 175.212 235.901 175.154C235.715 175.095 235.285 174.972 234.945 174.879C232.754 174.281 232.071 174.066 232 173.953C231.955 173.882 231.69 173.737 231.41 173.63C231.129 173.523 230.9 173.402 230.9 173.36C230.9 173.319 230.736 173.212 230.535 173.124C230.334 173.035 230.072 172.871 229.952 172.76C229.832 172.649 229.69 172.557 229.637 172.557C229.583 172.557 229.378 172.406 229.181 172.222C228.983 172.037 228.785 171.885 228.741 171.885C228.697 171.885 228.488 171.721 228.277 171.52C227.514 170.796 227.326 170.651 227.148 170.651C227.049 170.651 226.966 170.563 226.965 170.455C226.963 170.347 226.761 170.085 226.515 169.873C226.27 169.661 226.068 169.4 226.068 169.293C226.068 169.169 225.947 169.073 225.731 169.025C225.526 168.98 225.391 168.878 225.387 168.764C225.382 168.633 225.35 168.653 225.277 168.832C225.188 169.055 225.146 169.069 224.948 168.946C224.824 168.868 224.745 168.728 224.773 168.635C224.842 168.405 225.201 165.046 225.187 164.765C225.18 164.641 225.223 164.389 225.282 164.204C225.341 164.019 225.395 163.691 225.402 163.475C225.425 162.779 225.641 161.071 225.736 160.84C225.786 160.717 225.857 160.389 225.893 160.111C226.036 159.011 226.1 158.704 226.218 158.558C226.286 158.474 226.347 158.196 226.354 157.941C226.376 157.151 226.545 156.075 226.646 156.075C226.699 156.075 226.743 155.872 226.743 155.625C226.743 155.377 226.788 155.087 226.843 154.98C226.998 154.679 227.305 153.56 227.305 153.296C227.305 153.167 227.348 153.034 227.401 153.001C227.454 152.968 227.532 152.65 227.573 152.294C227.615 151.937 227.742 151.343 227.857 150.973C227.971 150.603 228.129 150.048 228.206 149.74C228.283 149.431 228.422 148.927 228.514 148.618C228.607 148.31 228.68 147.932 228.678 147.778C228.675 147.624 228.709 147.472 228.753 147.441C228.843 147.378 229.259 146.084 229.781 144.245C229.973 143.567 230.253 142.606 230.403 142.109C230.553 141.612 230.675 141.12 230.675 141.016C230.675 140.911 230.726 140.826 230.788 140.826C230.85 140.826 230.9 140.743 230.9 140.642C230.9 140.436 231.527 138.314 231.691 137.966C231.749 137.843 231.923 137.364 232.077 136.902C232.231 136.44 232.409 136.044 232.472 136.023C232.534 136.003 232.586 135.911 232.586 135.821C232.586 135.395 234.425 133.201 234.782 133.201C234.853 133.201 235.002 133.1 235.114 132.977C235.226 132.853 235.385 132.753 235.469 132.753C235.552 132.753 235.62 132.706 235.62 132.65C235.62 132.552 237.056 132.012 237.208 132.052C237.248 132.063 237.58 132.023 237.947 131.964C238.367 131.897 238.925 131.896 239.449 131.962C239.97 132.027 240.323 132.027 240.39 131.961C240.554 131.798 240.901 131.836 240.901 132.017C240.901 132.321 241.115 132.309 242.44 131.93C243.829 131.533 245.25 131.174 246.294 130.957C246.634 130.887 246.988 130.8 247.081 130.764C247.174 130.728 247.289 130.707 247.338 130.718C247.387 130.729 247.766 130.683 248.181 130.617C248.923 130.499 252.609 130.461 253.598 130.562C254.389 130.642 256.511 130.956 257.194 131.094C257.534 131.162 257.913 131.233 258.037 131.25C259.359 131.441 260.344 131.62 260.458 131.691C260.535 131.738 261.387 131.801 262.351 131.83C263.316 131.859 264.357 131.896 264.666 131.911C264.975 131.926 265.557 131.898 265.959 131.848C266.36 131.799 267.296 131.728 268.037 131.69C268.779 131.652 269.525 131.594 269.695 131.561C269.865 131.528 270.004 131.544 270.004 131.597C270.004 131.649 270.294 131.76 270.649 131.842C271.356 132.006 272.631 132.582 272.975 132.892C273.095 133 273.228 133.089 273.272 133.089C273.315 133.089 273.383 133.22 273.424 133.379C273.469 133.559 273.554 133.648 273.646 133.613C273.93 133.504 274.723 134.963 274.723 135.595C274.723 135.734 274.769 135.895 274.825 135.954C274.881 136.012 274.956 136.313 274.992 136.621C275.134 137.833 275.18 138.075 275.287 138.181C275.348 138.242 275.397 138.43 275.397 138.599C275.397 138.768 275.453 138.94 275.52 138.982C275.588 139.024 275.622 139.168 275.596 139.303C275.571 139.438 275.616 139.61 275.698 139.687C275.78 139.763 275.85 140.013 275.853 140.241C275.857 140.47 275.96 141.011 276.083 141.442C276.206 141.874 276.36 142.53 276.425 142.9C276.491 143.27 276.578 143.598 276.619 143.629C276.708 143.696 276.841 144.173 277.368 146.32C277.587 147.214 277.841 148.202 277.931 148.516C278.021 148.83 278.094 149.345 278.094 149.661C278.094 150.086 278.151 150.289 278.313 150.439C278.433 150.55 278.587 150.893 278.654 151.2C279.029 152.902 279.757 155.453 280.381 157.252C280.531 157.684 280.744 158.428 280.855 158.906C280.966 159.384 281.098 159.775 281.149 159.775C281.199 159.775 281.242 159.939 281.243 160.139C281.244 160.34 281.374 160.983 281.532 161.569C281.889 162.897 282.013 163.417 282.1 163.952C282.138 164.183 282.209 164.372 282.258 164.372C282.382 164.372 282.661 165.537 282.692 166.186C282.697 166.29 282.766 166.441 282.845 166.523C283.018 166.7 283.401 168.533 283.408 169.214C283.413 169.732 283.272 170.559 283.162 170.651C283.125 170.682 283.039 170.808 282.972 170.932C282.904 171.055 282.702 171.229 282.522 171.319C282.048 171.556 280.713 171.668 280.181 171.515C279.846 171.419 279.729 171.42 279.695 171.521C279.546 171.968 277.368 173.144 275.692 173.682C275.128 173.864 274.49 174.071 274.274 174.143C273.743 174.321 273.196 174.463 272.588 174.58C272.31 174.634 271.83 174.73 271.521 174.795C271.212 174.859 269.872 174.934 268.543 174.96C266.311 175.006 264.792 174.931 259.778 174.53C256.049 174.231 253.239 174.224 252.949 174.513C252.849 174.613 252.851 176.976 252.952 179.005C253.108 182.104 253.049 190.891 252.866 191.792C252.819 192.022 252.743 194.911 252.644 200.289C252.614 201.882 252.563 203.228 252.53 203.281C252.498 203.334 252.526 203.411 252.594 203.453C252.662 203.495 252.689 203.641 252.655 203.779C252.62 203.916 252.565 204.731 252.531 205.589C252.433 208.115 252.196 211.249 251.904 213.876C251.842 214.431 251.746 215.365 251.689 215.95C251.633 216.536 251.536 217.369 251.474 217.8C251.313 218.928 251.037 222.641 250.948 224.864C250.906 225.913 250.859 226.922 250.843 227.107C250.785 227.79 250.677 231.813 250.615 235.572C250.514 241.831 250.448 243.55 250.123 248.414C250.061 249.341 250.04 250.212 250.076 250.349C250.117 250.506 250.09 250.597 250.003 250.597C249.91 250.597 249.884 250.717 249.922 250.962C249.954 251.162 249.914 251.73 249.834 252.223C249.754 252.717 249.66 253.39 249.625 253.72C249.563 254.306 249.567 254.318 249.824 254.254C250.969 253.967 256.498 255.216 258.745 256.268C259.196 256.479 259.635 256.652 259.72 256.652C259.941 256.652 262.362 258.051 262.723 258.387C262.89 258.543 263.063 258.671 263.106 258.671C263.182 258.671 263.796 259.298 264.189 259.778C264.404 260.041 264.472 261.137 264.273 261.137C264.211 261.137 264.161 261.238 264.161 261.362C264.161 261.485 264.11 261.586 264.048 261.586C263.987 261.586 263.936 261.659 263.936 261.749C263.936 261.942 263.468 262.397 263.05 262.612C262.888 262.695 262.731 262.788 262.7 262.819C262.532 262.987 261.906 263.38 261.806 263.38C261.741 263.38 261.689 263.43 261.689 263.492C261.689 263.554 261.607 263.604 261.508 263.604C261.408 263.604 260.814 263.801 260.187 264.041C259.561 264.282 258.833 264.536 258.57 264.606C258.308 264.677 258.093 264.776 258.093 264.827C258.093 264.878 257.914 264.949 257.694 264.985C257.259 265.055 256.177 265.366 254.778 265.822C254.284 265.983 253.626 266.152 253.317 266.198C253.008 266.244 252.378 266.361 251.917 266.459C249.971 266.869 245.733 267.087 243.598 266.886ZM249.553 266.12C251.408 265.937 252.541 265.764 252.868 265.616C252.992 265.56 253.421 265.444 253.823 265.358C254.681 265.175 256.155 264.748 256.434 264.603C256.541 264.547 256.725 264.501 256.843 264.501C256.96 264.501 257.201 264.426 257.378 264.334C257.555 264.241 257.81 264.166 257.946 264.165C258.081 264.165 258.223 264.114 258.262 264.053C258.3 263.991 258.435 263.94 258.563 263.94C258.775 263.94 259.426 263.688 260.629 263.14C260.88 263.025 261.145 262.931 261.219 262.931C261.292 262.931 261.352 262.888 261.352 262.834C261.352 262.781 261.592 262.647 261.885 262.536C262.472 262.315 263.314 261.682 263.512 261.315C263.689 260.987 263.691 260.24 263.515 260.24C263.437 260.24 263.372 260.127 263.369 259.988C263.366 259.849 263.237 259.635 263.081 259.511C262.926 259.388 262.638 259.149 262.441 258.981C262.243 258.812 262.023 258.673 261.951 258.672C261.879 258.671 261.803 258.63 261.782 258.581C261.702 258.389 260.524 257.719 260.326 257.752C260.21 257.772 260.115 257.722 260.115 257.64C260.115 257.559 259.674 257.324 259.132 257.116C258.591 256.909 258.073 256.68 257.981 256.607C257.888 256.534 257.509 256.382 257.138 256.27C256.767 256.157 256.337 256.025 256.183 255.977C254.487 255.442 253.402 255.197 252.664 255.18C252.313 255.172 252.025 255.115 252.025 255.053C252.025 254.986 251.847 254.97 251.576 255.013C251.328 255.053 251.126 255.04 251.126 254.986C251.126 254.931 250.778 254.879 250.353 254.871L249.579 254.855L249.506 255.221C249.262 256.437 249.213 256.866 249.153 258.334C249.116 259.228 249.039 260.137 248.983 260.352C248.926 260.568 248.883 260.896 248.887 261.081C248.894 261.404 248.899 261.408 249.016 261.165C249.153 260.882 249.553 260.821 249.553 261.083C249.553 261.453 248.841 262.026 248.168 262.197C247.194 262.444 245.929 262.536 245.639 262.381C245.271 262.184 245.318 261.879 245.705 261.956L246.014 262.018L245.977 261.052C245.956 260.521 246.019 259.377 246.116 258.509C246.213 257.642 246.319 256.605 246.35 256.204C246.382 255.803 246.429 255.369 246.454 255.239C246.495 255.03 246.454 255.007 246.088 255.034C245.679 255.064 244.039 255.363 242.53 255.682C241.862 255.824 240.933 256.08 239.401 256.546C239.225 256.599 239.011 256.701 238.925 256.772C238.839 256.843 238.698 256.874 238.611 256.841C238.524 256.808 238.15 256.875 237.779 256.989C237.409 257.104 236.405 257.306 235.548 257.437C234.691 257.568 233.788 257.733 233.541 257.805C233.294 257.877 232.99 257.946 232.867 257.959C232.743 257.972 232.339 258.077 231.968 258.193C231.43 258.361 231.224 258.497 230.939 258.868C230.52 259.417 230.312 260.242 230.444 260.829C230.567 261.371 231.115 262.048 231.651 262.321C231.887 262.441 232.097 262.577 232.117 262.623C232.138 262.669 232.214 262.707 232.286 262.708C232.358 262.708 232.645 262.859 232.923 263.043C233.201 263.228 233.507 263.379 233.604 263.379C233.7 263.379 233.879 263.472 234.001 263.586C234.123 263.699 234.373 263.828 234.556 263.873C234.739 263.917 235.091 264.045 235.339 264.156C236.224 264.556 236.581 264.701 237.024 264.84C237.271 264.918 237.499 265.016 237.53 265.057C237.607 265.159 238.806 265.46 240.23 265.735C243.014 266.273 246.532 266.418 249.553 266.12ZM248.117 261.823C248.31 261.752 248.356 261.628 248.379 261.128C248.395 260.794 248.44 259.814 248.48 258.951C248.606 256.249 248.819 254.298 248.988 254.298C249.068 254.298 249.158 253.459 249.278 251.607C249.308 251.144 249.381 250.387 249.44 249.925C249.551 249.045 249.711 246.059 249.718 244.711C249.72 244.279 249.754 243.901 249.794 243.87C249.833 243.839 249.922 240.912 249.99 237.366C250.125 230.373 250.294 225.064 250.459 222.678C250.516 221.845 250.59 220.761 250.624 220.267C250.681 219.413 250.729 218.93 251.015 216.343C251.67 210.406 251.763 209.344 251.853 206.756C251.885 205.862 251.937 204.575 251.968 203.897C252 203.218 252.052 200.796 252.083 198.515C252.114 196.233 252.215 192.978 252.307 191.283C252.4 189.587 252.471 187.669 252.465 187.022C252.459 186.374 252.454 184.659 252.453 183.209C252.453 181.76 252.436 180.373 252.415 180.126C252.394 179.879 252.343 178.996 252.303 178.164C252.263 177.331 252.224 176.549 252.218 176.426C252.211 176.302 252.246 175.803 252.295 175.317L252.385 174.432L252.121 174.502C251.975 174.541 251.799 174.573 251.729 174.574C251.583 174.576 251.484 175.019 251.4 176.048C251.368 176.441 251.32 176.826 251.293 176.904C251.175 177.248 251.115 181.435 251.081 191.619C251.047 201.544 251.007 204.203 250.85 206.924C250.822 207.417 250.769 208.351 250.734 208.998C250.698 209.646 250.571 211.21 250.451 212.474C250.331 213.739 250.184 215.303 250.124 215.95C250.064 216.598 249.963 217.657 249.9 218.305C249.672 220.634 249.486 223.325 249.384 225.761C249.348 226.625 249.293 227.659 249.262 228.06C249.231 228.461 249.184 229.218 249.158 229.742C249.133 230.266 249.058 231.452 248.992 232.377C248.721 236.185 248.656 237.189 248.54 239.329C248.474 240.562 248.395 241.773 248.364 242.02C248.269 242.804 248.225 243.452 248.206 244.374C248.196 244.868 248.127 245.864 248.053 246.589C247.979 247.321 247.963 247.906 248.018 247.906C248.072 247.906 248.085 248.032 248.047 248.185C248.008 248.338 247.951 249.435 247.92 250.623C247.866 252.685 247.703 253.875 247.394 254.454C247.331 254.571 247.263 254.823 247.243 255.015C247.222 255.206 247.158 255.519 247.099 255.711C247.041 255.903 247.019 256.193 247.051 256.356C247.082 256.519 247.06 256.652 247.001 256.652C246.88 256.652 246.636 259.176 246.591 260.897L246.56 262.059L247.222 261.984C247.585 261.943 247.988 261.87 248.117 261.823ZM243.373 174.755C244.8 174.713 247.193 174.374 247.193 174.215C247.193 174.167 247.269 174.127 247.362 174.127C247.455 174.127 247.531 174.176 247.531 174.236C247.531 174.297 247.67 174.323 247.84 174.295C248.104 174.251 249.071 174.158 249.974 174.09C250.114 174.08 250.227 174.028 250.227 173.975C250.227 173.922 250.355 173.911 250.511 173.95C250.709 173.999 250.814 173.969 250.86 173.85C250.937 173.65 251.394 173.627 251.888 173.799C252.156 173.892 252.292 173.883 252.494 173.759C252.7 173.632 253.174 173.604 254.722 173.627C257.131 173.662 259.153 173.757 260.565 173.901C261.152 173.96 262.29 174.038 263.093 174.074C263.897 174.11 264.807 174.167 265.116 174.202C266.892 174.399 270.424 174.262 272.251 173.925C272.863 173.813 274.031 173.475 274.3 173.333C274.408 173.276 274.577 173.23 274.677 173.23C274.776 173.23 275.017 173.16 275.212 173.073C275.407 172.987 275.844 172.825 276.184 172.713C276.524 172.601 276.902 172.444 277.024 172.365C277.146 172.286 277.337 172.221 277.449 172.221C277.56 172.221 277.681 172.145 277.717 172.053C277.752 171.96 277.853 171.885 277.94 171.885C278.175 171.885 278.966 171.359 279.097 171.116C279.259 170.813 279.803 170.736 280.241 170.954C280.787 171.226 281.613 171.274 282.065 171.06C282.482 170.863 282.816 170.539 282.603 170.539C282.533 170.539 282.477 170.432 282.477 170.302C282.477 170.122 282.53 170.078 282.694 170.121C282.9 170.175 282.909 170.117 282.876 168.965C282.846 167.927 282.805 167.703 282.592 167.404C282.455 167.212 282.371 166.983 282.405 166.895C282.464 166.741 282.393 166.433 281.924 164.821C281.808 164.42 281.524 163.285 281.293 162.298C281.061 161.311 280.802 160.364 280.715 160.193C280.629 160.022 280.571 159.82 280.586 159.744C280.64 159.485 280.311 158.208 280.158 158.081C280.074 158.011 280.005 157.816 280.005 157.648C280.005 157.481 279.9 157.045 279.773 156.681C279.645 156.317 279.366 155.413 279.153 154.673C278.94 153.933 278.72 153.227 278.664 153.103C278.607 152.98 278.53 152.652 278.492 152.375C278.399 151.701 278.074 150.664 277.912 150.525C277.84 150.463 277.757 150.139 277.728 149.805C277.694 149.422 277.606 149.148 277.491 149.064C277.28 148.91 277.251 148.712 277.432 148.652C277.517 148.624 277.499 148.476 277.378 148.185C277.28 147.951 277.207 147.65 277.217 147.516C277.241 147.171 276.836 145.535 276.725 145.535C276.675 145.535 276.634 145.333 276.634 145.086C276.634 144.84 276.583 144.638 276.521 144.638C276.459 144.638 276.409 144.512 276.409 144.358C276.409 144.203 276.358 144.077 276.296 144.077C276.235 144.077 276.184 143.936 276.184 143.763C276.184 143.591 276.134 143.399 276.072 143.338C276.011 143.276 275.935 142.906 275.905 142.515C275.874 142.124 275.805 141.748 275.75 141.68C275.695 141.611 275.614 141.302 275.57 140.994C275.525 140.685 275.452 140.383 275.407 140.321C275.26 140.121 275.048 139.254 275.118 139.141C275.155 139.081 275.085 139.032 274.962 139.032C274.782 139.032 274.722 138.932 274.663 138.538C274.622 138.267 274.622 137.939 274.663 137.81C274.704 137.681 274.696 137.512 274.646 137.435C274.596 137.357 274.554 137.041 274.554 136.733C274.554 136.248 274.522 136.168 274.318 136.139C274.11 136.109 274.081 136.03 274.081 135.491C274.081 135.154 274.051 134.848 274.015 134.811C273.978 134.775 273.781 134.846 273.577 134.968C273.21 135.19 272.006 135.46 271.464 135.443C271.31 135.439 270.905 135.462 270.565 135.495C268.443 135.705 266.986 135.766 263.992 135.772C259.827 135.781 258.233 135.837 255.789 136.062C254.154 136.213 253.133 136.317 250.03 136.648C249.768 136.677 249.553 136.751 249.553 136.813C249.553 136.876 249.464 136.904 249.354 136.876C249.245 136.847 248.12 136.895 246.854 136.981C244.23 137.161 244.202 137.162 243.822 137.132C243.668 137.12 242.74 137.141 241.761 137.179C240.215 137.239 239.118 137.181 237.53 136.957C237.375 136.935 236.945 136.836 236.574 136.736C236.204 136.636 235.647 136.508 235.338 136.452C234.419 136.283 233.551 136.066 233.393 135.965C233.214 135.85 232.965 136.146 232.863 136.593C232.824 136.762 232.75 136.901 232.698 136.901C232.646 136.901 232.569 137.065 232.526 137.266C232.484 137.466 232.386 137.781 232.308 137.966C232.165 138.308 231.843 139.352 231.521 140.517C231.423 140.872 231.294 141.162 231.234 141.162C231.174 141.162 231.125 141.352 231.125 141.584C231.125 141.816 231.02 142.283 230.892 142.621C230.764 142.96 230.559 143.64 230.438 144.133C230.316 144.625 230.168 145.077 230.108 145.136C230.049 145.195 230.001 145.383 230.001 145.554C230.001 145.724 229.931 146.029 229.845 146.232C229.76 146.434 229.632 146.827 229.562 147.105C229.491 147.382 229.305 148.063 229.148 148.618C228.992 149.173 228.798 149.905 228.717 150.244C228.636 150.583 228.464 151.239 228.333 151.702C228.203 152.164 228.124 152.649 228.159 152.78C228.2 152.935 228.16 153.04 228.044 153.084C227.946 153.122 227.866 153.255 227.866 153.38C227.866 153.506 227.812 153.608 227.747 153.608C227.682 153.608 227.662 153.663 227.704 153.73C227.779 153.852 227.361 155.861 227.189 156.198C227.073 156.427 226.915 157.414 226.953 157.673C226.968 157.781 226.927 157.869 226.862 157.869C226.794 157.869 226.742 158.105 226.742 158.417C226.742 158.812 226.693 158.985 226.566 159.034C226.461 159.074 226.414 159.181 226.448 159.298C226.509 159.501 226.482 159.73 226.077 162.46C225.945 163.352 225.811 164.386 225.781 164.759C225.75 165.132 225.651 165.904 225.56 166.473C225.311 168.027 225.33 168.246 225.731 168.483C225.916 168.592 226.068 168.771 226.068 168.881C226.068 169.008 226.152 169.081 226.298 169.081C226.425 169.081 226.645 169.208 226.789 169.362C226.932 169.516 227.076 169.642 227.11 169.642C227.144 169.642 227.393 169.857 227.664 170.119C228.327 170.759 229.183 171.455 229.669 171.747C229.888 171.879 230.186 172.09 230.332 172.216C230.478 172.342 230.661 172.445 230.739 172.445C230.817 172.445 230.898 172.483 230.919 172.529C230.955 172.61 232.516 173.398 232.979 173.57C233.517 173.768 236.189 174.461 236.855 174.574C237.897 174.751 240.017 174.883 241.069 174.836C241.564 174.814 242.6 174.778 243.373 174.755H243.373ZM250.171 169.586C249.266 169.382 248.654 169.176 248.654 169.074C248.654 169.029 248.295 168.882 247.856 168.749C247.388 168.608 246.953 168.394 246.804 168.234C246.664 168.083 246.492 167.96 246.422 167.96C246.352 167.96 246.294 167.91 246.294 167.848C246.294 167.786 246.241 167.736 246.176 167.736C246.021 167.736 245.283 167.147 245.283 167.024C245.283 166.972 245.131 166.788 244.946 166.615C244.761 166.442 244.609 166.253 244.609 166.194C244.609 166.135 244.469 165.941 244.297 165.762C243.877 165.323 243.53 164.557 243.305 163.57C243.08 162.584 243.15 161.11 243.477 159.93C243.594 159.506 243.824 158.679 243.986 158.093C244.345 156.797 244.3 156.296 243.78 155.811L243.429 155.484L242.249 155.552C240.459 155.655 240.521 155.609 240.964 156.506C241.466 157.523 241.62 158.194 241.536 158.998C241.443 159.884 241.04 160.64 240.225 161.459C239.855 161.83 239.552 162.183 239.552 162.244C239.552 162.304 239.426 162.354 239.272 162.354C239.097 162.354 238.991 162.29 238.991 162.186C238.991 162.092 239.091 162.018 239.215 162.018C239.34 162.018 239.44 161.943 239.44 161.849C239.44 161.757 239.491 161.681 239.552 161.681C239.614 161.681 239.665 161.599 239.665 161.498C239.665 161.397 239.791 161.198 239.946 161.055C240.1 160.912 240.227 160.742 240.227 160.677C240.227 160.613 240.277 160.56 240.339 160.56C240.401 160.56 240.452 160.472 240.452 160.364C240.452 160.256 240.562 159.991 240.697 159.775C241.139 159.064 240.907 157.702 240.12 156.392C239.997 156.187 239.826 155.867 239.739 155.682C239.653 155.497 239.425 155.169 239.232 154.954C239.039 154.738 238.881 154.52 238.88 154.469C238.878 154.341 238.58 154.057 238.449 154.057C238.342 154.057 238.204 153.799 238.204 153.599C238.204 153.542 238.318 153.498 238.457 153.499C238.724 153.503 239.328 153.964 239.328 154.163C239.328 154.228 239.397 154.281 239.481 154.281C239.62 154.281 240.053 154.818 240.422 155.446C240.529 155.629 240.561 155.641 240.562 155.499C240.566 155.122 241.32 154.898 242.586 154.898C243.702 154.898 243.788 154.915 244.172 155.208C244.508 155.464 244.601 155.628 244.706 156.151C244.924 157.234 244.824 158.112 244.331 159.439C243.838 160.765 243.702 162.446 243.991 163.627C244.184 164.412 244.832 165.818 245.005 165.825C245.104 165.829 245.635 166.39 246.467 167.372C246.585 167.51 246.747 167.624 246.827 167.624C246.908 167.624 247.166 167.746 247.403 167.894C247.639 168.043 248.042 168.228 248.299 168.305C248.556 168.381 248.767 168.484 248.767 168.534C248.767 168.583 248.956 168.658 249.188 168.702C249.42 168.745 249.786 168.855 250.003 168.946C250.549 169.176 252.361 169.175 253.106 168.944C253.787 168.733 254.311 168.474 254.787 168.113C255.091 167.882 256.72 166.273 257.026 165.901C257.62 165.178 258.193 163.738 259.265 160.28C259.845 158.407 260.011 157.952 260.187 157.748C260.271 157.651 260.34 157.522 260.34 157.462C260.34 156.995 262.271 154.764 263 154.389C263.175 154.299 263.343 154.2 263.374 154.169C263.517 154.027 264.199 153.72 264.373 153.72C264.48 153.72 264.665 153.646 264.785 153.556C264.905 153.465 265.093 153.389 265.202 153.387C265.657 153.379 266.261 152.902 266.355 152.475C266.394 152.297 266.498 152.15 266.586 152.15C266.673 152.15 266.745 152.071 266.745 151.973C266.745 151.778 267.566 150.917 267.752 150.917C268 150.917 267.85 151.44 267.493 151.815C267.123 152.205 266.805 152.696 266.877 152.767C266.897 152.787 267.129 152.764 267.392 152.716C267.655 152.668 268.16 152.66 268.514 152.698C269.016 152.752 269.167 152.812 269.198 152.972C269.232 153.15 269.166 153.174 268.694 153.155C267.908 153.122 266.982 153.276 266.786 153.472C266.657 153.6 266.635 153.773 266.693 154.198C266.76 154.684 267.225 155.801 267.428 155.963C267.467 155.994 267.627 156.221 267.785 156.467C267.943 156.714 268.229 157.083 268.42 157.287C268.972 157.876 268.794 158.266 268.206 157.757C268.063 157.633 267.909 157.532 267.863 157.532C267.818 157.532 267.615 157.276 267.413 156.962C267.211 156.648 266.986 156.331 266.914 156.259C266.609 155.955 266.189 155.038 266.064 154.402C265.975 153.949 265.876 153.72 265.769 153.72C265.681 153.72 265.303 153.872 264.93 154.057C264.556 154.242 264.207 154.393 264.155 154.393C263.918 154.393 262.988 155.142 262.264 155.915C261.095 157.165 260.459 158.456 259.729 161.064C259.414 162.187 258.986 163.52 258.874 163.726C258.815 163.833 258.767 163.968 258.767 164.025C258.767 164.391 257.876 165.97 257.277 166.662C255.857 168.308 255.019 168.922 253.43 169.478C252.709 169.731 251.058 169.785 250.171 169.586ZM254.273 160.036C254.273 159.878 254.53 159.697 255.256 159.346C256.872 158.563 257.194 158.38 257.194 158.245C257.194 158.174 257.417 157.931 257.688 157.704C258.69 156.869 259.212 155.383 259.215 153.362C259.217 152.316 259.172 152.03 258.867 151.12C258.674 150.546 258.421 149.942 258.305 149.778C258.188 149.615 258.093 149.433 258.093 149.375C258.093 149.197 257.779 148.629 257.536 148.369C257.41 148.234 257.306 148.021 257.306 147.896C257.306 147.77 257.218 147.561 257.11 147.43C256.671 146.899 255.302 145.535 255.209 145.535C255.154 145.535 254.943 145.384 254.74 145.199C254.537 145.014 254.298 144.862 254.209 144.862C254.121 144.862 254.048 144.812 254.048 144.75C254.048 144.688 253.994 144.638 253.927 144.638C253.861 144.638 253.9 144.756 254.014 144.9C254.24 145.188 255.672 146.516 256.33 147.048C256.558 147.233 256.745 147.449 256.745 147.528C256.745 147.798 256.393 147.809 256.034 147.55C255.45 147.129 255.38 147.068 254.379 146.084L253.417 145.141L253.063 145.87C252.136 147.78 250.045 149.046 247.325 149.345C246.184 149.47 245.694 149.447 244.497 149.209C243.325 148.977 241.912 148.166 241.912 147.727C241.912 147.631 241.845 147.553 241.763 147.553C241.675 147.553 241.558 147.313 241.479 146.973C241.329 146.322 241.395 146.212 241.94 146.209C242.26 146.208 242.348 146.401 242.126 146.622C241.874 146.873 242.52 147.659 243.342 148.1C245.076 149.03 248.136 148.972 249.915 147.974C250.499 147.647 250.363 147.589 249.761 147.909C249.053 148.285 247.474 148.285 246.744 147.91C245.292 147.165 244.651 146.413 244.537 145.325C244.471 144.704 244.44 144.638 244.206 144.638C243.664 144.638 243.72 144.092 244.328 143.469C244.544 143.246 244.721 143.02 244.721 142.967C244.721 142.791 245.555 142.12 246.07 141.88C247.102 141.401 247.8 141.243 249.124 141.187C250.291 141.138 250.528 141.161 251.259 141.398C251.711 141.544 252.098 141.702 252.119 141.749C252.139 141.796 252.242 141.835 252.347 141.835C252.451 141.835 252.654 141.917 252.798 142.017C253.042 142.188 253.076 142.184 253.356 141.959C253.631 141.738 254.397 141.346 255.411 140.907C256.926 140.25 259.57 140.406 261.52 141.267C261.644 141.321 261.833 141.394 261.942 141.429C262.05 141.463 262.138 141.594 262.138 141.719C262.138 142.007 261.887 142.008 261.295 141.723C261.048 141.603 260.735 141.504 260.6 141.502C260.464 141.5 260.327 141.455 260.294 141.401C260.188 141.23 258.895 141.035 257.832 141.03C257.014 141.026 256.626 141.084 255.958 141.309C254.648 141.752 254.358 141.899 253.938 142.334C253.599 142.685 253.566 142.767 253.686 142.958C253.761 143.078 253.823 143.285 253.823 143.416C253.823 143.607 253.769 143.645 253.557 143.604C253.349 143.565 253.303 143.595 253.342 143.746C253.377 143.876 253.467 143.92 253.62 143.88C253.744 143.847 253.879 143.873 253.919 143.938C253.959 144.002 254.236 144.184 254.534 144.342C254.832 144.5 255.276 144.795 255.52 144.998C256.368 145.702 257.813 147.162 257.937 147.441C258.265 148.173 258.358 148.326 258.445 148.273C258.496 148.241 258.901 148.323 259.344 148.455C260.256 148.726 261.768 148.775 262.452 148.555C262.681 148.481 263.206 148.2 263.617 147.929C264.335 147.457 264.629 147.172 265.317 146.279C265.49 146.055 265.7 145.871 265.784 145.871C265.882 145.871 265.916 145.79 265.879 145.647C265.834 145.475 265.875 145.423 266.058 145.423C266.413 145.423 266.374 145.984 265.987 146.451C265.817 146.657 265.64 146.841 265.593 146.862C265.547 146.882 265.509 146.948 265.509 147.007C265.509 147.35 263.873 148.674 263.449 148.674C263.346 148.674 263.262 148.719 263.262 148.773C263.262 148.938 262.687 149.119 261.824 149.226C261.017 149.326 259.655 149.178 258.851 148.904C258.466 148.772 258.458 148.882 258.81 149.438C259.647 150.761 259.915 151.92 259.832 153.854C259.756 155.601 259.727 155.741 259.238 156.691C258.715 157.71 257.512 158.912 256.516 159.411C256.117 159.611 255.701 159.775 255.593 159.775C255.485 159.775 255.396 159.819 255.396 159.873C255.396 159.927 255.257 160.002 255.087 160.039C254.917 160.076 254.664 160.138 254.525 160.178C254.326 160.234 254.273 160.204 254.273 160.036ZM249.665 147.197C250.236 146.879 250.941 146.244 251.351 145.678C251.488 145.489 251.915 144.329 252.099 143.644C252.125 143.547 252.243 143.511 252.42 143.544C252.574 143.574 252.699 143.554 252.699 143.501C252.699 143.448 252.598 143.405 252.475 143.405C252.293 143.405 252.25 143.33 252.25 143.012C252.25 142.519 252.53 142.477 252.626 142.956C252.68 143.223 252.752 143.292 252.977 143.292C253.261 143.292 253.261 143.292 253.036 143.068C252.913 142.945 252.812 142.798 252.812 142.741C252.812 142.685 252.431 142.451 251.966 142.222C251.121 141.806 251.118 141.805 249.634 141.799C247.991 141.793 247.404 141.924 246.294 142.543C245.568 142.948 245.415 143.121 245.481 143.463C245.508 143.602 245.449 143.839 245.351 143.988C244.669 145.027 245.335 146.509 246.805 147.219C247.909 147.752 248.682 147.746 249.665 147.197ZM251.308 147.071C251.566 146.874 251.891 146.536 252.031 146.32C252.17 146.104 252.374 145.796 252.484 145.634C252.749 145.245 252.852 144.648 252.714 144.302C252.617 144.06 252.6 144.052 252.589 144.245C252.582 144.369 252.411 144.859 252.21 145.336C251.868 146.144 251.21 146.998 250.605 147.418C250.404 147.558 250.405 147.561 250.617 147.496C250.739 147.459 251.05 147.268 251.308 147.071ZM248.345 158.047C248.083 157.778 247.868 157.477 247.868 157.377C247.868 157.278 247.817 157.196 247.755 157.196C247.693 157.196 247.643 157.069 247.643 156.914C247.643 156.759 247.596 156.545 247.538 156.438C247.348 156.085 247.193 155.203 247.195 154.483C247.199 153.173 247.759 151.253 248.137 151.253C248.23 151.253 248.386 151.087 248.482 150.884C248.579 150.681 248.821 150.42 249.021 150.305C249.221 150.189 249.505 149.977 249.653 149.833C249.8 149.689 249.99 149.571 250.074 149.571C250.389 149.571 250.208 149.979 249.701 150.412C248.727 151.245 248.429 151.556 248.429 151.741C248.429 151.843 248.359 151.926 248.273 151.926C248.072 151.926 247.978 152.174 248.06 152.487C248.097 152.628 248.064 152.771 247.985 152.82C247.895 152.876 247.824 153.32 247.785 154.072C247.732 155.122 247.756 155.338 248.033 156.244C248.33 157.213 248.649 157.825 248.958 158.015C249.144 158.129 249.149 158.543 248.963 158.538C248.886 158.537 248.608 158.315 248.345 158.047ZM259.724 146.996C259.687 146.936 259.444 146.833 259.184 146.767C258.512 146.598 257.84 146.301 257.644 146.087C257.551 145.987 257.323 145.826 257.138 145.731C256.302 145.301 255.297 143.669 255.198 142.581C255.145 142.004 255.161 141.929 255.33 141.964C255.455 141.989 255.621 142.294 255.809 142.844C256.12 143.753 256.731 144.645 257.441 145.227C257.686 145.427 257.969 145.679 258.071 145.787C258.172 145.895 258.313 145.983 258.385 145.983C258.456 145.983 258.755 146.09 259.051 146.22C259.84 146.569 261.132 146.57 261.768 146.223C262.028 146.082 262.272 145.869 262.31 145.75C262.347 145.632 262.441 145.535 262.518 145.535C262.742 145.535 262.957 144.456 262.969 143.269C262.981 142.066 263.064 141.946 263.533 142.451C263.676 142.606 263.851 142.732 263.921 142.732C263.991 142.732 264.048 142.776 264.048 142.829C264.048 142.883 264.297 142.96 264.601 143C265.08 143.064 265.184 143.126 265.387 143.47C265.516 143.688 265.622 143.939 265.622 144.028C265.622 144.301 265.232 144.208 264.891 143.853C264.714 143.668 264.509 143.517 264.437 143.517C264.365 143.517 264.157 143.374 263.975 143.2C263.697 142.935 263.62 142.909 263.499 143.037C263.386 143.158 263.385 143.226 263.492 143.355C263.707 143.614 263.52 144.814 263.138 145.613C262.752 146.422 262.435 146.705 261.653 146.937C261.015 147.126 259.827 147.162 259.724 146.996ZM243.71 136.399C244.977 136.37 246.515 136.297 247.129 136.238C247.742 136.178 248.273 136.135 248.309 136.143C248.476 136.176 250.019 135.963 250.621 135.823C250.991 135.737 251.725 135.643 252.25 135.614C253.612 135.539 253.985 135.495 254.151 135.393C254.232 135.343 254.33 135.354 254.369 135.417C254.417 135.493 254.811 135.483 255.565 135.386C257.26 135.168 264.178 135.012 266.717 135.135C267.042 135.15 267.307 135.127 267.307 135.084C267.307 135.04 267.446 135.009 267.616 135.014C268.456 135.042 270.85 134.857 270.91 134.759C270.955 134.686 271.313 134.689 271.96 134.769L272.941 134.891L273.379 134.57C273.713 134.324 273.786 134.217 273.686 134.117C273.614 134.045 273.467 133.986 273.36 133.986C273.253 133.986 273.055 133.831 272.92 133.642C272.598 133.191 271.34 132.601 270.735 132.618C270.488 132.625 270.058 132.553 269.78 132.459C269.213 132.266 267.587 132.302 266.23 132.538C265.783 132.616 264.982 132.646 264.29 132.61C263.563 132.573 263.011 132.596 262.848 132.67C262.655 132.758 262.516 132.752 262.322 132.649C262.177 132.571 261.811 132.493 261.509 132.475C260.772 132.43 259.791 132.275 257.306 131.812C255.57 131.489 253.106 131.209 251.913 131.199C251.758 131.197 251.48 131.185 251.295 131.171C250.73 131.128 248.422 131.271 247.587 131.401C246.672 131.542 243.871 132.168 243.541 132.305C242.065 132.916 241.177 133.005 240.381 132.621C240.24 132.553 239.52 132.522 238.623 132.545C237.445 132.575 237.057 132.624 236.895 132.761C236.781 132.858 236.474 132.999 236.215 133.073C235.955 133.147 235.668 133.281 235.576 133.372C235.485 133.463 235.36 133.537 235.297 133.537C235.235 133.537 235.018 133.689 234.815 133.874C234.612 134.059 234.381 134.21 234.302 134.21C234.223 134.21 234.159 134.336 234.159 134.49C234.159 134.645 234.096 134.771 234.018 134.772C233.941 134.772 233.797 134.914 233.698 135.087L233.519 135.402L234.934 135.66C235.713 135.802 236.603 135.984 236.912 136.065C237.825 136.306 238.654 136.429 238.654 136.325C238.654 136.272 238.729 136.228 238.822 136.228C238.915 136.228 238.991 136.276 238.991 136.335C238.991 136.454 239.985 136.534 240.845 136.485C241.154 136.467 242.443 136.429 243.71 136.399ZM291.691 175.895C291.691 175.579 291.498 175.361 291.219 175.361C291.091 175.361 291.016 175.277 291.016 175.136C291.016 175.013 290.972 174.912 290.918 174.912C290.863 174.912 290.758 174.765 290.683 174.585C290.607 174.401 290.433 174.23 290.284 174.193C290.139 174.156 289.988 174.026 289.949 173.903C289.91 173.779 289.793 173.677 289.689 173.676C289.517 173.673 289.106 173.039 289.106 172.777C289.106 172.576 289.498 172.669 289.97 172.982C290.556 173.37 291.241 173.986 291.241 174.125C291.241 174.182 291.355 174.349 291.494 174.495C292.035 175.064 292.175 175.305 292.185 175.69C292.194 176.023 292.154 176.095 291.943 176.125C291.742 176.154 291.691 176.107 291.691 175.895ZM212.556 171.135C212.288 171.065 212.306 170.763 212.579 170.763C212.699 170.763 213.023 170.612 213.297 170.427C213.572 170.242 213.868 170.091 213.955 170.091C214.042 170.091 214.161 170.045 214.219 169.99C214.278 169.935 214.528 169.863 214.776 169.831C215.023 169.799 215.364 169.737 215.534 169.694C215.916 169.598 215.952 169.819 215.614 170.182C215.453 170.354 215.253 170.427 214.94 170.427C214.695 170.427 214.495 170.465 214.495 170.512C214.495 170.61 214.017 170.829 213.567 170.938C213.396 170.979 213.229 171.057 213.195 171.112C213.131 171.215 212.897 171.224 212.556 171.135ZM293.713 165.83C293.621 165.77 293.33 165.72 293.067 165.719C292.735 165.718 292.59 165.67 292.59 165.562C292.59 165.476 292.463 165.374 292.309 165.335C292.154 165.297 292.028 165.194 292.028 165.108C292.028 164.89 292.62 164.781 293.246 164.884C293.534 164.931 293.858 164.959 293.965 164.945C294.256 164.907 294.837 165.288 294.837 165.518C294.837 165.665 294.748 165.718 294.5 165.718C294.314 165.718 294.163 165.768 294.163 165.83C294.163 165.972 293.933 165.972 293.713 165.83ZM210.14 164.634C210.063 164.603 210 164.515 210 164.437C210 164.281 211.629 163.027 211.835 163.026C211.907 163.025 212.219 162.901 212.528 162.749C213.379 162.331 213.894 162.409 213.419 162.883C213.05 163.251 212.377 163.647 210.816 164.416C210.677 164.485 210.563 164.578 210.563 164.624C210.562 164.717 210.358 164.722 210.14 164.634ZM291.578 152.881C291.578 152.79 291.452 152.684 291.297 152.645C291.124 152.601 291.016 152.495 291.016 152.366C291.016 152.131 290.656 151.902 290.233 151.871C290.077 151.859 289.835 151.841 289.696 151.832C289.557 151.822 289.443 151.744 289.443 151.658C289.443 151.572 289.317 151.47 289.162 151.432C289.008 151.393 288.882 151.312 288.882 151.251C288.882 151.191 288.806 151.141 288.713 151.141C288.496 151.141 288.493 150.817 288.71 150.734C289.199 150.547 291.258 151.414 291.771 152.023C292.101 152.415 292.121 153.047 291.803 153.047C291.679 153.047 291.578 152.973 291.578 152.881ZM215.113 150.736C214.627 150.662 214.27 150.458 214.27 150.253C214.27 150.102 214.459 150.076 215.566 150.076C216.513 150.076 216.887 150.036 216.953 149.929C217.011 149.836 217.148 149.809 217.333 149.855C217.497 149.896 218.035 149.824 218.582 149.687C219.664 149.417 220.598 149.416 220.649 149.685C220.672 149.805 220.491 149.909 220.032 150.04C219.675 150.142 219.029 150.333 218.596 150.464C217.822 150.699 215.876 150.851 215.113 150.736ZM214.438 140.364C213.635 140.313 212.801 140.216 212.584 140.148C212.368 140.079 212.014 140.037 211.798 140.052C211.052 140.107 210.674 140.048 210.674 139.877C210.674 139.506 212.157 139.381 213.82 139.613C214.222 139.669 214.993 139.722 215.534 139.732C216.175 139.744 216.517 139.794 216.517 139.876C216.517 140.002 216.04 140.503 215.948 140.473C215.921 140.464 215.242 140.415 214.438 140.364ZM287.162 140.081C286.997 139.917 287.095 139.615 287.336 139.545C287.476 139.504 288.082 139.44 288.685 139.403C289.662 139.343 289.78 139.356 289.78 139.523C289.78 139.627 289.717 139.729 289.64 139.751C288.869 139.967 288.503 140.04 287.92 140.095C287.546 140.13 287.205 140.124 287.162 140.081ZM222.22 133.898C221.988 133.794 221.799 133.645 221.799 133.567C221.799 133.489 221.719 133.425 221.622 133.425C221.329 133.425 221.142 133.149 220.89 132.343C220.554 131.265 220.434 130.959 220.287 130.809C220.216 130.737 219.934 130.375 219.659 130.005C219.385 129.635 219.071 129.251 218.962 129.151C218.677 128.89 218.719 128.716 219.068 128.716C219.559 128.716 220.872 130.267 221.623 131.735C222.152 132.769 222.205 132.854 222.638 133.341C222.788 133.511 223.015 133.65 223.142 133.65C223.453 133.65 223.435 133.943 223.119 134.027C222.767 134.122 222.697 134.112 222.22 133.898ZM282.055 133.761C281.693 133.612 281.715 133.201 282.085 133.201C282.24 133.201 282.455 133.157 282.562 133.102C282.852 132.955 283.781 132.753 284.164 132.753C284.387 132.753 284.499 132.696 284.499 132.584C284.499 132.492 284.575 132.416 284.668 132.416C284.76 132.416 284.836 132.466 284.836 132.526C284.836 132.593 284.934 132.599 285.089 132.54C285.875 132.244 286.169 132.192 286.452 132.299C286.853 132.451 286.86 132.865 286.462 132.865C286.306 132.865 286.152 132.932 286.12 133.014C286.084 133.108 285.874 133.164 285.552 133.164C285.271 133.164 285.008 133.21 284.967 133.267C284.802 133.494 284.293 133.655 283.599 133.698C283.196 133.723 282.741 133.771 282.587 133.804C282.434 133.837 282.194 133.818 282.055 133.761ZM229.075 125C228.873 124.793 228.553 124.443 228.364 124.223C228.175 124.003 227.936 123.79 227.831 123.75C227.727 123.71 227.642 123.585 227.642 123.472C227.642 123.134 227.073 122.101 226.888 122.101C226.773 122.101 226.735 122.028 226.774 121.881C226.805 121.761 226.762 121.572 226.678 121.461C226.594 121.35 226.523 121.177 226.521 121.075C226.52 120.974 226.442 120.862 226.349 120.827C226.159 120.754 226.117 120.306 226.301 120.306C226.574 120.306 226.866 120.566 227.155 121.065C227.324 121.357 227.491 121.621 227.525 121.652C227.56 121.683 227.709 121.948 227.857 122.241C228.005 122.534 228.157 122.773 228.194 122.773C228.231 122.773 228.323 122.912 228.4 123.082C228.476 123.251 228.716 123.576 228.933 123.803C229.15 124.03 229.327 124.269 229.327 124.333C229.327 124.398 229.454 124.483 229.608 124.521C229.763 124.56 229.889 124.662 229.889 124.748C229.889 124.833 229.965 124.904 230.057 124.904C230.15 124.904 230.226 124.979 230.226 125.072C230.226 125.164 230.163 125.241 230.086 125.242C230.008 125.242 229.832 125.273 229.694 125.31C229.505 125.361 229.351 125.284 229.075 125ZM281.315 123.259C281.198 123.142 281.228 122.661 281.353 122.661C281.415 122.661 281.465 122.618 281.465 122.565C281.465 122.512 281.646 122.277 281.867 122.044C282.179 121.713 282.235 121.596 282.119 121.513C282.01 121.435 282.024 121.424 282.171 121.471C282.311 121.516 282.409 121.452 282.498 121.257C282.568 121.104 282.667 120.979 282.719 120.979C282.771 120.979 282.814 120.904 282.814 120.811C282.814 120.706 282.92 120.643 283.095 120.643C283.249 120.643 283.376 120.695 283.376 120.758C283.376 121.046 282.66 122.212 282.156 122.745C281.611 123.322 281.467 123.41 281.315 123.259ZM242.699 119.488C242.699 119.284 242.755 119.061 242.825 118.992C242.907 118.911 242.946 118.334 242.938 117.344C242.928 116.118 242.956 115.821 243.081 115.821C243.367 115.821 243.571 116.614 243.589 117.797C243.606 118.901 243.504 119.384 243.186 119.718C242.927 119.989 242.699 119.881 242.699 119.488ZM265.879 119.444C265.839 119.34 265.853 119.239 265.91 119.22C265.969 119.201 265.998 118.704 265.977 118.092C265.953 117.424 266.037 116.158 266.192 114.836C266.407 113.005 266.473 112.678 266.624 112.708C266.771 112.737 266.801 112.926 266.801 113.804C266.801 114.388 266.737 115.497 266.658 116.269C266.579 117.04 266.546 118.07 266.583 118.556C266.635 119.229 266.615 119.464 266.502 119.536C266.256 119.691 265.957 119.647 265.879 119.444ZM253.374 116.477C253.374 116.405 253.505 116.175 253.666 115.964C254.077 115.427 254.239 114.555 254.265 112.743C254.289 111.119 254.307 111 254.536 111C254.772 111 254.974 111.953 254.929 112.85C254.905 113.312 254.925 113.691 254.973 113.691C255.099 113.691 255.079 114.002 254.95 114.046C254.89 114.067 254.807 114.449 254.765 114.896C254.724 115.343 254.646 115.709 254.593 115.709C254.541 115.709 254.497 115.778 254.497 115.861C254.497 116.128 253.96 116.606 253.66 116.606C253.502 116.606 253.374 116.548 253.374 116.477Z" fill="black"/>

<path d="M250.677 131.165C247.75 131.205 244.897 131.939 242.098 132.714C239.968 132.725 237.576 132.063 235.678 133.367C234.93 133.758 234.249 134.229 233.859 134.982C233.466 135.317 233.757 135.63 234.204 135.587C235.796 135.949 237.447 136.267 239.049 136.422C241.796 136.709 244.591 136.416 247.349 136.281C250.264 136.044 253.15 135.473 256.076 135.43C261.311 135.141 266.564 135.172 271.795 134.851C272.496 134.987 273.299 135.002 273.697 134.299C273.919 133.907 273.068 133.844 272.955 133.52C270.632 131.803 267.557 132.522 264.887 132.557C261.828 132.833 258.854 131.87 255.837 131.548C254.127 131.314 252.405 131.127 250.677 131.165Z" fill="#FFEEAA"/>

<path d="M252.015 174.447C251.133 174.891 251.616 176.257 251.383 177.049C250.794 190.246 251.609 203.5 250.123 216.656C249.078 228.876 248.644 241.142 247.702 253.368C247.031 256.248 246.682 259.219 246.55 262.165C247.231 261.919 248.741 262.264 248.455 261.058C248.655 256.389 249.542 251.788 249.694 247.114C250.36 235.84 250.066 224.508 251.435 213.277C252.345 202.586 252.433 191.842 252.496 181.118C252.367 178.918 252.66 176.622 252.194 174.477C252.151 174.428 252.074 174.437 252.015 174.447Z" fill="#C87137" stroke="#C87137" stroke-width="0.1" stroke-linecap="round"/>

<path d="M252.327 174.498C252.23 174.503 252.129 174.548 252.194 174.665C252.237 174.77 252.202 174.946 252.305 175.012C252.417 174.908 252.38 174.705 252.399 174.561C252.401 174.522 252.369 174.488 252.327 174.498Z" fill="#C87137" stroke="#C87137" stroke-width="0.1" stroke-linecap="round"/>

<path d="M249.71 254.874C249.464 256.02 249.323 257.184 249.283 258.355C249.239 259.226 249.173 260.096 249.029 260.957C249.013 261.014 249.007 261.181 249.103 261.092C249.212 260.968 249.367 260.927 249.526 260.984C249.727 260.995 249.682 261.26 249.581 261.366C249.173 261.94 248.483 262.213 247.804 262.308C247.132 262.405 246.427 262.55 245.758 262.38C245.629 262.332 245.415 262.233 245.431 262.07C245.565 261.876 245.829 262.065 246.005 262.021C246.071 261.655 245.998 261.268 246.013 260.895C246.021 259.251 246.263 257.62 246.403 255.984C246.419 255.672 246.495 255.343 246.465 255.041C245.567 255.097 244.688 255.312 243.804 255.466C242.275 255.755 240.759 256.143 239.294 256.671C239.077 256.79 238.847 256.876 238.592 256.858C237.951 256.96 237.324 257.172 236.679 257.267C235.43 257.489 234.178 257.686 232.945 257.985C232.429 258.122 231.868 258.214 231.428 258.53C230.962 258.916 230.673 259.488 230.577 260.08C230.575 260.372 230.55 260.675 230.586 260.961C230.838 261.541 231.228 262.087 231.8 262.385C232.07 262.541 232.313 262.748 232.611 262.855C233.045 263.087 233.467 263.351 233.928 263.518C234.207 263.693 234.48 263.89 234.809 263.972C235.666 264.288 236.497 264.67 237.356 264.982C238.234 265.395 239.212 265.549 240.156 265.749C242.672 266.219 245.244 266.372 247.799 266.266C249.321 266.189 250.845 266.052 252.344 265.783C253.029 265.618 253.701 265.404 254.39 265.253C255.186 265.063 255.962 264.799 256.741 264.552C257.211 264.467 257.653 264.231 258.128 264.153C258.293 264.085 258.437 263.968 258.63 263.956C259.54 263.725 260.366 263.253 261.246 262.939C261.533 262.742 261.843 262.579 262.164 262.435C262.717 262.132 263.316 261.776 263.594 261.189C263.669 260.909 263.703 260.591 263.627 260.31C263.553 260.21 263.415 260.167 263.412 260.019C263.313 259.521 262.81 259.283 262.469 258.963C262.284 258.79 262.055 258.69 261.836 258.575C261.433 258.208 260.94 257.927 260.423 257.755C260.161 257.742 260.037 257.46 259.797 257.384C259.109 257.05 258.388 256.788 257.706 256.444C256.671 256.067 255.609 255.765 254.545 255.481C253.86 255.294 253.157 255.205 252.451 255.144C252.294 255.126 252.128 255.091 251.999 255.01C251.695 254.999 251.366 255.084 251.086 254.933C250.633 254.87 250.16 254.847 249.71 254.874Z" fill="#917C6F" stroke="#C87137" stroke-width="0.1" stroke-linecap="round"/>
</svg>
