<svg width="241" height="241" viewBox="0 0 241 241" fill="none" xmlns="http://www.w3.org/2000/svg">
<path d="M21.5 219.167V120H1V180V240H124V219.167H21.5Z" fill="#15D1AB" stroke="#15D1AB"/>
<path fill-rule="evenodd" clip-rule="evenodd" d="M241 0H41V200H241V0ZM163.539 86.7352C166.861 70.4601 181.409 32.9276 185.594 30.0047C187.653 28.5433 189.247 28.6762 190.377 30.4033C191.838 32.7948 195.093 43.5563 199.677 61.6914C205.057 82.6166 206.851 91.5181 206.32 93.9095C205.39 97.5631 200.075 107.328 198.282 108.458C197.152 109.188 195.359 109.587 193.167 109.52C188.982 109.454 177.024 105.601 169.451 101.815C164.403 99.2903 163.805 98.7589 163.008 96.3674C162.277 94.0424 162.344 92.8467 163.539 86.7352ZM132.982 31.3997C120.294 33.6583 98.0402 38.3748 87.8101 40.8991C77.1815 43.6227 74.5907 44.4863 73.4614 45.8149L72 47.4756L73.9929 54.9821C75.1222 59.1007 76.4507 63.02 77.115 63.7507C78.6429 65.5443 93.3902 71.9215 110.064 78.033C121.158 82.1516 124.479 82.8823 128.133 82.3509C131.653 81.8194 133.248 79.8266 136.37 71.7222C140.953 59.9643 141.684 57.2407 142.614 47.7413C143.677 36.3819 143.278 33.924 140.023 32.5955C137.167 31.3997 134.975 31.0012 132.982 31.3997ZM134.908 81.6866C136.237 81.4873 137.632 81.2216 137.964 81.0887C142.813 79.428 150.054 83.2145 153.043 88.9938C154.904 92.581 154.904 100.818 152.977 108.325C151.781 113.041 151.25 113.971 148.593 116.429C143.411 121.145 136.436 121.61 130.258 117.625C126.937 115.499 125.808 112.643 125.077 104.605C124.147 94.3745 125.475 88.9274 129.993 84.543C131.587 83.0152 133.38 81.9523 134.908 81.6866ZM78.9086 92.7802C75.9857 93.5774 74.6572 95.1717 73.9264 98.7589C72.9964 102.944 73.5279 106.531 78.1779 127.921C84.4222 156.751 88.8066 170.502 91.7959 170.967C94.6523 171.432 97.6416 166.982 102.624 154.825C112.787 130.113 113.983 126.858 115.046 121.145C115.777 117.293 114.714 106.93 113.319 104.87C112.19 103.077 109.532 101.682 100.033 97.8288C89.2051 93.511 82.2301 91.7838 78.9086 92.7802ZM144.208 129.715C146.932 123.869 148.327 122.208 150.918 121.743C151.848 121.61 152.778 121.411 152.977 121.345C154.372 121.013 162.344 123.205 169.119 125.729C192.502 134.365 205.788 140.41 208.977 143.731C209.749 144.552 210.241 145.048 210.344 145.615C210.524 146.608 209.51 147.818 206.718 151.371C203.197 155.821 201.271 156.685 187.454 160.206C175.962 163.129 153.176 168.177 147.596 169.041C142.813 169.838 139.16 169.174 137.499 167.314C133.779 162.996 136.901 145.392 144.208 129.715Z" fill="#15D1AB"/>
</svg>
