<?xml version="1.0" standalone="no"?>
<!DOCTYPE svg PUBLIC "-//W3C//DTD SVG 20010904//EN"
 "http://www.w3.org/TR/2001/REC-SVG-20010904/DTD/svg10.dtd">
<svg version="1.0" xmlns="http://www.w3.org/2000/svg"
 width="480.000000pt" height="480.000000pt" viewBox="0 0 480.000000 480.000000"
 preserveAspectRatio="xMidYMid meet">
<metadata>
Created by potrace 1.14, written by Peter Selinger 2001-2017
</metadata>
<g transform="translate(0.000000,480.000000) scale(0.100000,-0.100000)"
fill="#000000" stroke="none">
<path d="M2075 4490 c-85 -9 -269 -61 -345 -97 -30 -15 -70 -32 -88 -39 -18
-6 -50 -23 -70 -36 -20 -14 -75 -49 -121 -78 -46 -30 -100 -69 -120 -87 -20
-18 -39 -33 -43 -33 -11 0 -126 -112 -146 -141 -9 -15 -53 -73 -96 -130 -72
-94 -105 -149 -212 -359 -46 -89 -89 -220 -104 -310 -6 -41 -15 -93 -20 -115
-10 -43 -16 -89 -25 -174 -3 -30 -7 -57 -9 -60 -8 -14 16 -280 30 -335 22 -88
36 -129 51 -147 7 -8 13 -18 13 -21 0 -17 96 -167 145 -227 59 -71 131 -121
174 -121 14 0 27 -13 40 -37 10 -21 31 -49 45 -62 14 -14 26 -30 26 -37 0 -16
109 -115 181 -164 89 -61 276 -156 354 -179 108 -33 125 -38 203 -56 39 -9 72
-20 72 -24 0 -6 -115 -53 -225 -92 -27 -10 -95 -34 -150 -54 -135 -48 -188
-54 -243 -25 -55 29 -162 146 -215 235 -23 39 -47 76 -54 83 -17 17 -16 27 1
61 8 15 18 51 22 79 8 60 -9 95 -54 115 -15 6 -49 33 -75 59 -38 38 -62 52
-118 69 -118 36 -192 14 -264 -79 -63 -80 -82 -176 -49 -250 57 -129 97 -172
161 -172 26 0 29 -3 30 -37 1 -21 9 -63 18 -93 9 -30 22 -82 31 -115 8 -33 27
-96 41 -140 65 -197 105 -240 308 -327 77 -33 292 -103 350 -114 20 -3 39 -12
42 -20 2 -7 -5 -77 -18 -156 -31 -197 -37 -270 -26 -292 6 -12 5 -21 -1 -25
-6 -3 -12 -33 -13 -66 l-3 -60 46 -3 45 -3 6 103 c4 57 13 156 21 221 8 65 12
125 9 133 -3 8 -1 14 5 14 5 0 12 19 15 42 6 49 48 249 68 321 11 41 11 49 -2
62 -12 12 -22 13 -41 6 -19 -7 -31 -26 -52 -81 -14 -39 -26 -82 -26 -96 0 -15
-6 -24 -16 -24 -17 0 -218 60 -269 80 -16 7 -41 14 -55 16 -42 8 -190 87 -224
120 -34 33 -87 162 -125 304 -11 41 -24 91 -30 110 -5 19 -12 54 -15 77 -6 42
-6 43 36 64 24 12 57 26 73 30 17 4 40 11 52 14 16 5 23 2 28 -15 7 -22 72
-121 110 -168 97 -120 161 -172 234 -192 55 -14 155 6 310 64 64 25 166 62
226 84 61 23 137 54 171 70 62 31 81 35 147 33 36 -1 37 -2 30 -28 -4 -16 -7
-52 -6 -81 5 -146 189 -212 327 -118 64 44 183 143 251 209 39 37 81 70 95 73
14 3 46 12 71 20 45 14 79 11 79 -7 0 -5 11 -9 24 -9 29 0 180 35 256 59 30
10 87 28 125 40 86 26 125 49 158 93 45 60 105 186 153 318 61 170 57 165 119
142 28 -11 77 -32 110 -48 l60 -30 -2 -84 c-2 -68 -12 -121 -53 -265 -28 -99
-58 -204 -66 -234 -8 -30 -24 -69 -34 -87 -11 -17 -20 -39 -20 -47 0 -9 -10
-33 -22 -54 -12 -21 -28 -51 -36 -68 -40 -82 -115 -118 -322 -156 -79 -15
-122 -9 -136 18 -19 38 -46 63 -70 63 -38 0 -38 -32 1 -116 35 -74 55 -136 76
-239 6 -27 15 -66 19 -85 40 -177 71 -351 85 -467 26 -224 19 -203 72 -203
l46 0 -7 83 c-13 169 -105 638 -161 823 -6 19 1 21 106 38 155 25 287 74 331
123 20 21 100 181 129 257 24 62 75 239 94 323 8 34 18 71 24 81 13 25 30 128
37 222 4 56 10 78 22 85 30 18 81 75 108 121 20 33 27 63 31 122 5 72 3 83
-25 144 -38 83 -88 139 -149 168 l-48 22 -1 162 c-1 157 -16 288 -50 441 -29
130 -75 278 -102 330 -9 16 -17 36 -18 43 -10 55 -257 417 -277 405 -6 -3 -7
-2 -4 4 6 10 -48 66 -123 125 -61 49 -218 130 -310 161 -130 44 -171 49 -267
34 -72 -10 -73 -10 -115 19 -24 16 -55 36 -70 44 -16 7 -28 17 -28 21 0 13
-195 77 -255 83 -104 10 -367 14 -440 6z m1444 -1169 c27 -31 74 -104 105
-161 56 -107 81 -185 112 -345 32 -167 15 -487 -31 -580 -8 -16 -21 -46 -30
-65 -21 -50 -55 -108 -92 -162 -18 -26 -33 -49 -33 -53 0 -9 -88 -110 -145
-167 -57 -56 -137 -113 -210 -150 -110 -56 -342 -123 -480 -140 -108 -12 -137
-31 -115 -73 14 -25 34 -30 125 -26 l30 1 -24 -17 c-13 -10 -33 -28 -46 -40
-12 -13 -26 -23 -30 -23 -4 0 -28 -18 -52 -41 -85 -78 -154 -90 -210 -34 -30
30 -34 39 -28 67 14 69 13 68 70 68 30 0 65 4 78 9 34 13 44 47 21 72 -15 16
-31 19 -115 19 -54 0 -129 4 -166 10 -38 5 -106 15 -153 21 -241 32 -459 113
-659 243 -163 106 -287 291 -335 501 -16 71 -20 132 -17 280 5 278 120 601
270 766 l67 72 59 -22 c33 -13 80 -27 105 -31 25 -5 81 -18 125 -28 194 -47
265 -54 585 -57 177 -2 268 1 330 11 47 8 103 17 125 20 22 2 54 9 70 14 30 8
103 22 107 20 2 -1 41 12 87 29 79 29 164 75 255 140 l39 28 79 -60 c43 -33
100 -85 127 -116z m614 -810 c54 -21 96 -71 118 -139 30 -97 21 -152 -36 -225
-44 -55 -45 -56 -72 -43 -104 51 -182 85 -206 91 -15 4 -26 13 -25 19 2 7 -12
27 -30 46 -36 36 -56 76 -48 96 3 8 24 18 48 25 35 9 49 20 78 62 46 67 110
92 173 68z m-486 -713 c-49 -92 -60 -106 -103 -130 -52 -28 -224 -81 -224 -68
0 4 10 10 23 14 31 8 146 114 217 201 36 44 66 72 74 69 7 -3 24 4 37 15 13
11 25 16 27 11 2 -4 -21 -55 -51 -112z m-2752 56 c18 -8 56 -40 85 -70 28 -30
58 -54 66 -54 12 0 13 -8 8 -37 -11 -62 -22 -83 -43 -83 -11 0 -63 -22 -116
-49 l-97 -48 -39 25 c-39 25 -99 126 -99 166 0 9 14 44 30 77 23 44 40 64 63
74 43 19 102 19 142 -1z m2490 -854 c3 -5 -1 -10 -9 -10 -9 0 -16 5 -16 10 0
6 4 10 9 10 6 0 13 -4 16 -10z"/>
<path d="M1707 3128 c-105 -10 -183 -46 -238 -109 -58 -68 -79 -104 -95 -166
-19 -74 -17 -137 6 -213 33 -103 96 -173 205 -226 62 -30 79 -34 150 -34 89 0
140 15 212 60 53 33 139 139 149 182 3 16 12 28 20 28 8 0 14 5 14 11 0 5 -5
7 -11 4 -7 -5 -8 5 -4 32 10 59 11 60 61 77 46 15 49 15 93 -7 43 -21 46 -25
46 -62 0 -22 5 -46 12 -53 7 -7 13 -20 13 -28 0 -24 77 -137 112 -165 78 -61
127 -80 220 -86 81 -6 94 -4 158 22 96 39 174 110 213 194 26 57 30 78 31 156
0 102 -15 146 -80 234 -114 153 -338 189 -506 82 -48 -31 -134 -137 -145 -179
-5 -20 -10 -23 -32 -16 -35 9 -128 10 -171 1 -34 -7 -35 -6 -58 40 -75 160
-207 238 -375 221z m201 -184 c3 -24 -6 -31 -128 -96 -286 -153 -300 -158
-300 -119 0 20 22 41 65 63 69 35 272 143 300 160 37 22 59 20 63 -8z m972 2
c0 -13 -6 -28 -12 -34 -7 -5 -91 -49 -187 -97 -155 -78 -175 -86 -188 -72 -9
9 -13 22 -10 30 3 8 56 40 119 70 62 31 140 72 173 91 73 42 105 46 105 12z
m74 -82 c27 -10 18 -40 -21 -66 -68 -44 -339 -188 -355 -188 -21 0 -32 31 -16
46 7 6 33 23 58 36 212 116 290 161 295 169 7 11 17 11 39 3z m-980 -10 c9 -3
16 -16 16 -28 0 -25 -42 -52 -220 -141 -63 -31 -122 -62 -130 -69 -25 -20 -69
-36 -85 -30 -18 7 -20 31 -2 48 34 35 301 171 330 169 9 -1 17 4 17 10 0 7 12
20 28 29 32 21 27 19 46 12z"/>
<path d="M2295 2720 c-3 -5 -1 -10 4 -10 6 0 11 5 11 10 0 6 -2 10 -4 10 -3 0
-8 -4 -11 -10z"/>
<path d="M2135 2710 c3 -5 8 -10 11 -10 2 0 4 5 4 10 0 6 -5 10 -11 10 -5 0
-7 -4 -4 -10z"/>
<path d="M2172 2437 c-26 -19 -55 -31 -74 -32 -38 0 -58 -26 -39 -49 19 -23
71 -20 121 7 42 22 45 22 61 6 28 -28 94 -44 124 -31 46 21 22 79 -27 67 -19
-5 -35 2 -67 29 -24 20 -46 36 -49 35 -4 0 -26 -15 -50 -32z"/>
</g>
</svg>
