<svg width="149" height="236" viewBox="0 0 149 236" fill="none" xmlns="http://www.w3.org/2000/svg">
<path d="M83.0591 54C97.9708 54 110.059 41.9117 110.059 27C110.059 12.0883 97.9708 0 83.0591 0C68.1474 0 56.0591 12.0883 56.0591 27C56.0591 41.9117 68.1474 54 83.0591 54Z" fill="#2F2E41"/>
<path d="M57.4049 200.326L56.6899 188.088L103.556 179.503L104.612 197.567L57.4049 200.326Z" fill="#FFB8B8"/>
<path d="M59.6754 179.141L61.0551 202.745L46.1936 203.613L43.9452 165.148C45.8968 165.034 47.8518 165.306 49.6985 165.947C51.5453 166.589 53.2476 167.587 54.7083 168.887C56.169 170.186 57.3594 171.761 58.2117 173.52C59.0639 175.279 59.5613 177.189 59.6754 179.141Z" fill="#2F2E41"/>
<path d="M77.7891 200.214L70.0041 209.685L29.7681 184.166L41.2571 170.188L77.7891 200.214Z" fill="#FFB8B8"/>
<path d="M61.7374 214.226L76.7506 195.96L88.2512 205.413L63.7853 235.179C62.275 233.938 61.0241 232.411 60.1038 230.687C59.1835 228.962 58.612 227.073 58.4218 225.127C58.2316 223.181 58.4266 221.217 58.9955 219.347C59.5644 217.476 60.4961 215.736 61.7374 214.226Z" fill="#2F2E41"/>
<path d="M55.3865 156.17L50.0668 181.249C49.9443 181.826 49.9511 182.424 50.0868 182.998C50.2225 183.573 50.4836 184.11 50.8515 184.572C51.2193 185.033 51.6848 185.408 52.2145 185.668C52.7442 185.929 53.325 186.069 53.9152 186.078L106.213 186.922C106.803 186.931 107.387 186.81 107.924 186.568C108.462 186.325 108.939 185.967 109.321 185.518C109.704 185.069 109.982 184.542 110.137 183.973C110.292 183.404 110.319 182.808 110.217 182.227L105.642 156.305C105.479 155.379 104.994 154.54 104.274 153.936C103.554 153.331 102.643 153 101.703 153H59.2995C58.3828 153 57.4939 153.315 56.7816 153.892C56.0693 154.469 55.5768 155.273 55.3865 156.17Z" fill="#2F2E41"/>
<path d="M64.059 165C64.059 165 13.059 133 3.05903 150C-1.94097 158.5 0.559033 166.75 4.30903 172.875C7.78906 178.452 12.7845 182.923 18.7115 185.766L60.059 206L75.059 190L65.059 181L64.059 165Z" fill="#2F2E41"/>
<path d="M90.0591 160C90.0591 160 156.059 141 143.059 177C130.059 213 81.0591 199 81.0591 199L76.0591 184L93.0591 172L90.0591 160Z" fill="#2F2E41"/>
<path d="M83.3977 57.7264C96.9624 57.7264 107.959 46.73 107.959 33.1653C107.959 19.6006 96.9624 8.60431 83.3977 8.60431C69.833 8.60431 58.8367 19.6006 58.8367 33.1653C58.8367 46.73 69.833 57.7264 83.3977 57.7264Z" fill="#FFB8B8"/>
<path d="M84.6846 163.969C74.4787 163.814 64.3251 162.477 54.4275 159.982L54.135 159.902L40.4295 96.8574C39.1965 91.3175 40.0348 85.5178 42.7861 80.5537C45.5373 75.5896 50.011 71.8048 55.3623 69.914C71.8921 63.9833 89.9085 63.6235 106.662 68.8896C112.283 70.7012 117.015 74.5657 119.913 79.712C122.812 84.8583 123.663 90.9081 122.297 96.6543L106.989 159.85L106.773 159.952C100.411 162.966 92.456 163.969 84.6846 163.969Z" fill="#CCCCCC"/>
<path d="M66.2743 168.866C66.772 167.483 67.567 166.226 68.6032 165.183C69.6394 164.14 70.8917 163.337 72.2717 162.831C73.6518 162.324 75.1262 162.127 76.591 162.251C78.0557 162.376 79.4753 162.821 80.7496 163.554L107.736 140.13L110.178 158.538L84.1766 177.96C82.8034 180.019 80.7226 181.503 78.3284 182.131C75.9341 182.758 73.3929 182.486 71.1862 181.365C68.9795 180.244 67.2607 178.352 66.3554 176.049C65.4501 173.745 65.4212 171.19 66.2743 168.866Z" fill="#FFB8B8"/>
<path d="M92.0123 173.976C91.5732 173.975 91.1365 173.911 90.7159 173.785C90.0331 173.586 89.4078 173.227 88.8924 172.737C88.377 172.247 87.9865 171.641 87.7535 170.969L84.4961 161.74C84.1912 160.887 84.1525 159.962 84.385 159.087C84.6175 158.211 85.1104 157.427 85.7984 156.838L122.567 134.764L108.073 70.1025L108.442 70.0137C108.592 69.9766 123.442 66.5967 129.527 82.8242C133.789 94.1895 149.559 118.901 148.446 135.601C148.235 138.941 146.904 142.112 144.668 144.603C142.433 147.094 139.423 148.759 136.124 149.328L94.7362 173.041C93.9567 173.645 92.9987 173.974 92.0123 173.976Z" fill="#CCCCCC"/>
<path d="M96.1361 166.673C95.6384 165.289 94.8434 164.032 93.8072 162.989C92.771 161.946 91.5188 161.144 90.1387 160.637C88.7586 160.131 87.2842 159.933 85.8195 160.058C84.3547 160.183 82.9351 160.628 81.6608 161.36L54.6743 137.936L52.2327 156.344L78.2338 175.767C79.607 177.826 81.6879 179.31 84.0821 179.937C86.4763 180.565 89.0175 180.292 91.2242 179.171C93.4309 178.05 95.1497 176.159 96.0551 173.855C96.9604 171.552 96.9892 168.996 96.1361 166.673Z" fill="#FFB8B8"/>
<path d="M73.106 173.976C72.1197 173.974 71.1617 173.645 70.3822 173.041L25.994 151.328C22.6958 150.759 19.6858 149.094 17.4501 146.603C15.2144 144.112 13.8834 140.941 13.672 137.601C12.5594 120.901 31.3295 94.1895 35.5909 82.8242C41.6759 66.5967 56.5265 69.9756 56.6766 70.0137L57.0453 70.1025L39.5511 136.764L79.3199 156.838C80.0079 157.427 80.5008 158.211 80.7333 159.087C80.9659 159.962 80.9271 160.887 80.6221 161.74L77.3648 170.969C77.1318 171.641 76.7413 172.247 76.2259 172.737C75.7105 173.227 75.0852 173.586 74.4024 173.785C73.9818 173.911 73.5451 173.975 73.106 173.976Z" fill="#CCCCCC"/>
<path d="M126 184H37C35.1441 183.998 33.3649 183.26 32.0526 181.947C30.7404 180.635 30.0022 178.856 30 177V128C30.0022 126.144 30.7404 124.365 32.0526 123.053C33.3649 121.74 35.1441 121.002 37 121H126C127.856 121.002 129.635 121.74 130.947 123.053C132.26 124.365 132.998 126.144 133 128V177C132.998 178.856 132.26 180.635 130.947 181.947C129.635 183.26 127.856 183.998 126 184Z" fill="#6C63FF"/>
<path d="M58.5905 32.1657C57.1349 28.4734 59.5232 24.0733 63.0662 22.2847C66.6092 20.4961 70.8847 20.8363 74.6744 22.0151C77.8593 23.0057 80.8442 24.5409 83.9513 25.7535C87.0145 27.111 90.3607 27.7069 93.7042 27.4904C97.0185 27.1161 100.317 25.2576 101.673 22.2104C103.079 19.0518 102.123 15.1973 99.9581 12.5017C97.6548 9.89562 94.6737 7.97963 91.3464 6.96683C84.0389 4.3924 75.5981 4.31714 68.8141 8.05933C62.03 11.8015 57.4196 19.7696 58.8219 27.3894" fill="#2F2E41"/>
<path d="M87.7485 155.91C87.5331 156.399 87.278 156.85 86.9826 157.264C86.5798 157.828 86.25 158.218 85.9959 158.435C85.6019 158.791 85.1798 158.974 84.7278 158.984C84.4033 158.984 84.012 158.893 83.5565 158.709C83.0995 158.526 82.6795 158.435 82.2955 158.435C81.8927 158.435 81.4608 158.526 80.9987 158.709C80.536 158.893 80.1632 158.989 79.8782 158.999C79.4448 159.017 79.0128 158.829 78.5815 158.435C78.3063 158.199 77.962 157.795 77.5496 157.222C77.107 156.61 76.7433 155.901 76.4582 155.092C76.153 154.218 76 153.372 76 152.553C76 151.615 76.2063 150.806 76.6195 150.128C76.9443 149.583 77.3763 149.153 77.917 148.838C78.4578 148.522 79.042 148.362 79.6712 148.351C80.0155 148.351 80.467 148.456 81.028 148.662C81.5875 148.868 81.9467 148.973 82.1042 148.973C82.222 148.973 82.621 148.85 83.2975 148.606C83.9373 148.38 84.4772 148.286 84.9195 148.323C86.1181 148.418 87.0186 148.883 87.6175 149.719C86.5455 150.358 86.0152 151.252 86.0258 152.398C86.0355 153.292 86.3652 154.035 87.0133 154.625C87.3071 154.899 87.6351 155.111 88 155.261C87.9209 155.487 87.8373 155.703 87.7485 155.91ZM84.9996 145.28C84.9996 145.98 84.7393 146.634 84.2204 147.239C83.5943 147.958 82.837 148.374 82.0157 148.308C82.0053 148.224 81.9992 148.136 81.9992 148.043C81.9992 147.371 82.297 146.652 82.8257 146.064C83.0897 145.766 83.4255 145.518 83.8326 145.321C84.2389 145.126 84.6232 145.018 84.9846 145C84.9952 145.094 84.9996 145.187 84.9996 145.28Z" fill="#B3B3B3"/>
</svg>
